<svg width="20" height="20" viewBox="0 0 20 20" fill="none" xmlns="http://www.w3.org/2000/svg">
<path d="M10.4262 19.5484C3.83484 19.5484 2.07375 12.6774 2.8698 8.17551C2.90445 7.97957 3.16129 7.92313 3.2732 8.08766C3.61976 8.59703 3.92816 9.33277 4.43914 9.26891C5.20715 9.17289 5.73922 2.39602 10.291 0.48918C10.4354 0.428672 10.5866 0.543477 10.5707 0.699258C10.3456 2.90758 11.6715 6.0691 14.0205 6.0691C15.3671 6.0691 16.2884 4.99441 16.7488 3.91512C16.8887 3.58727 17.3677 3.62859 17.4479 3.9759C18.2694 7.53379 20.4655 19.5484 10.4262 19.5484V19.5484Z" fill="#FF8F1F"/>
<path d="M8.11547 12.9229C8.27047 12.7927 8.50578 12.8821 8.54097 13.0814C8.62332 13.548 8.8941 14.3497 9.7823 14.3497C10.8507 14.3497 11.5758 11.4097 11.766 10.5451C11.7973 10.4028 11.9359 10.3062 12.0786 10.3352C14.7487 10.8781 16.047 19.5484 10.1762 19.5484C5.90226 19.5484 6.87051 13.9688 8.11547 12.9229ZM15.4116 3.53336C15.5057 2.79735 14.1621 4.81043 14.1621 4.81043C14.1621 4.81043 15.1864 5.29426 15.4116 3.53336ZM1.87355 14.51C1.90187 14.1967 1.49879 13.3578 1.42742 13.6899C1.2566 14.4846 1.84523 14.8234 1.87355 14.51Z" fill="#FFB636"/>
<path d="M12.6241 13.617C12.5239 13.1994 12.1649 14.1694 12.21 14.5644C12.2551 14.9595 12.8636 14.6161 12.6241 13.617Z" fill="#FFD469"/>
</svg>
