<svg width="142" height="26" viewBox="0 0 142 26" fill="none" xmlns="http://www.w3.org/2000/svg">
<path d="M39.14 20.24C38.1133 20.24 37.2067 20.0667 36.42 19.72C35.6333 19.36 35.0133 18.8533 34.56 18.2C34.1067 17.5333 33.8733 16.7267 33.86 15.78H36.56C36.5867 16.4333 36.82 16.9867 37.26 17.44C37.7133 17.88 38.3333 18.1 39.12 18.1C39.8 18.1 40.34 17.94 40.74 17.62C41.14 17.2867 41.34 16.8467 41.34 16.3C41.34 15.7267 41.16 15.28 40.8 14.96C40.4533 14.64 39.9867 14.38 39.4 14.18C38.8133 13.98 38.1867 13.7667 37.52 13.54C36.44 13.1667 35.6133 12.6867 35.04 12.1C34.48 11.5133 34.2 10.7333 34.2 9.76C34.1867 8.93333 34.38 8.22667 34.78 7.64C35.1933 7.04 35.7533 6.58 36.46 6.26C37.1667 5.92667 37.98 5.76 38.9 5.76C39.8333 5.76 40.6533 5.92667 41.36 6.26C42.08 6.59333 42.64 7.06 43.04 7.66C43.4533 8.26 43.6733 8.97333 43.7 9.8H40.96C40.9467 9.30667 40.7533 8.87333 40.38 8.5C40.02 8.11333 39.5133 7.92 38.86 7.92C38.3 7.90667 37.8267 8.04667 37.44 8.34C37.0667 8.62 36.88 9.03333 36.88 9.58C36.88 10.0467 37.0267 10.42 37.32 10.7C37.6133 10.9667 38.0133 11.1933 38.52 11.38C39.0267 11.5667 39.6067 11.7667 40.26 11.98C40.9533 12.22 41.5867 12.5 42.16 12.82C42.7333 13.14 43.1933 13.5667 43.54 14.1C43.8867 14.62 44.06 15.2933 44.06 16.12C44.06 16.8533 43.8733 17.5333 43.5 18.16C43.1267 18.7867 42.5733 19.2933 41.84 19.68C41.1067 20.0533 40.2067 20.24 39.14 20.24ZM50.6536 20C49.6136 20 48.7803 19.7467 48.1536 19.24C47.5269 18.7333 47.2136 17.8333 47.2136 16.54V12.22H45.5136V10.08H47.2136L47.5136 7.42H49.7736V10.08H52.4536V12.22H49.7736V16.56C49.7736 17.04 49.8736 17.3733 50.0736 17.56C50.2869 17.7333 50.6469 17.82 51.1536 17.82H52.3936V20H50.6536ZM59.2177 20.24C58.2177 20.24 57.331 20.0267 56.5577 19.6C55.7843 19.1733 55.1777 18.5733 54.7377 17.8C54.2977 17.0267 54.0777 16.1333 54.0777 15.12C54.0777 14.0933 54.291 13.18 54.7177 12.38C55.1577 11.58 55.7577 10.96 56.5177 10.52C57.291 10.0667 58.1977 9.84 59.2377 9.84C60.211 9.84 61.071 10.0533 61.8177 10.48C62.5643 10.9067 63.1443 11.4933 63.5577 12.24C63.9843 12.9733 64.1977 13.7933 64.1977 14.7C64.1977 14.8467 64.191 15 64.1777 15.16C64.1777 15.32 64.171 15.4867 64.1577 15.66H56.6177C56.671 16.4333 56.9377 17.04 57.4177 17.48C57.911 17.92 58.5043 18.14 59.1977 18.14C59.7177 18.14 60.151 18.0267 60.4977 17.8C60.8577 17.56 61.1243 17.2533 61.2977 16.88H63.8977C63.711 17.5067 63.3977 18.08 62.9577 18.6C62.531 19.1067 61.9977 19.5067 61.3577 19.8C60.731 20.0933 60.0177 20.24 59.2177 20.24ZM59.2377 11.92C58.611 11.92 58.0577 12.1 57.5777 12.46C57.0977 12.8067 56.791 13.34 56.6577 14.06H61.5977C61.5577 13.4067 61.3177 12.8867 60.8777 12.5C60.4377 12.1133 59.891 11.92 59.2377 11.92ZM66.3508 20V10.08H68.6308L68.8708 11.94C69.2308 11.3 69.7174 10.7933 70.3308 10.42C70.9574 10.0333 71.6908 9.84 72.5308 9.84V12.54H71.8108C71.2508 12.54 70.7508 12.6267 70.3108 12.8C69.8708 12.9733 69.5241 13.2733 69.2708 13.7C69.0308 14.1267 68.9108 14.72 68.9108 15.48V20H66.3508ZM80.6805 20.24C79.2671 20.24 78.0538 19.94 77.0405 19.34C76.0271 18.7267 75.2471 17.88 74.7005 16.8C74.1538 15.7067 73.8805 14.4467 73.8805 13.02C73.8805 11.5933 74.1538 10.3333 74.7005 9.24C75.2471 8.14667 76.0271 7.29333 77.0405 6.68C78.0538 6.06667 79.2671 5.76 80.6805 5.76C82.3605 5.76 83.7338 6.18 84.8005 7.02C85.8805 7.84667 86.5538 9.01333 86.8205 10.52H84.0005C83.8271 9.76 83.4538 9.16667 82.8805 8.74C82.3205 8.3 81.5738 8.08 80.6405 8.08C79.3471 8.08 78.3338 8.52 77.6005 9.4C76.8671 10.28 76.5005 11.4867 76.5005 13.02C76.5005 14.5533 76.8671 15.76 77.6005 16.64C78.3338 17.5067 79.3471 17.94 80.6405 17.94C81.5738 17.94 82.3205 17.74 82.8805 17.34C83.4538 16.9267 83.8271 16.36 84.0005 15.64H86.8205C86.5538 17.08 85.8805 18.2067 84.8005 19.02C83.7338 19.8333 82.3605 20.24 80.6805 20.24ZM89.0266 20V10.08H91.3066L91.5466 11.94C91.9066 11.3 92.3932 10.7933 93.0066 10.42C93.6332 10.0333 94.3666 9.84 95.2066 9.84V12.54H94.4866C93.9266 12.54 93.4266 12.6267 92.9866 12.8C92.5466 12.9733 92.1999 13.2733 91.9466 13.7C91.7066 14.1267 91.5866 14.72 91.5866 15.48V20H89.0266ZM98.1963 24.4L100.496 19.34H99.8963L96.0363 10.08H98.8163L101.596 17.06L104.496 10.08H107.216L100.916 24.4H98.1963ZM108.89 24.4V10.08H111.17L111.45 11.5C111.77 11.06 112.19 10.6733 112.71 10.34C113.243 10.0067 113.93 9.84 114.77 9.84C115.703 9.84 116.537 10.0667 117.27 10.52C118.003 10.9733 118.583 11.5933 119.01 12.38C119.437 13.1667 119.65 14.06 119.65 15.06C119.65 16.06 119.437 16.9533 119.01 17.74C118.583 18.5133 118.003 19.1267 117.27 19.58C116.537 20.02 115.703 20.24 114.77 20.24C114.023 20.24 113.37 20.1 112.81 19.82C112.25 19.54 111.797 19.1467 111.45 18.64V24.4H108.89ZM114.23 18C115.043 18 115.717 17.7267 116.25 17.18C116.783 16.6333 117.05 15.9267 117.05 15.06C117.05 14.1933 116.783 13.48 116.25 12.92C115.717 12.36 115.043 12.08 114.23 12.08C113.403 12.08 112.723 12.36 112.19 12.92C111.67 13.4667 111.41 14.1733 111.41 15.04C111.41 15.9067 111.67 16.62 112.19 17.18C112.723 17.7267 113.403 18 114.23 18ZM125.966 20C124.926 20 124.093 19.7467 123.466 19.24C122.839 18.7333 122.526 17.8333 122.526 16.54V12.22H120.826V10.08H122.526L122.826 7.42H125.086V10.08H127.766V12.22H125.086V16.56C125.086 17.04 125.186 17.3733 125.386 17.56C125.599 17.7333 125.959 17.82 126.466 17.82H127.706V20H125.966ZM134.47 20.24C133.51 20.24 132.643 20.02 131.87 19.58C131.11 19.14 130.503 18.5333 130.05 17.76C129.61 16.9733 129.39 16.0667 129.39 15.04C129.39 14.0133 129.617 13.1133 130.07 12.34C130.523 11.5533 131.13 10.94 131.89 10.5C132.663 10.06 133.53 9.84 134.49 9.84C135.437 9.84 136.29 10.06 137.05 10.5C137.823 10.94 138.43 11.5533 138.87 12.34C139.323 13.1133 139.55 14.0133 139.55 15.04C139.55 16.0667 139.323 16.9733 138.87 17.76C138.43 18.5333 137.823 19.14 137.05 19.58C136.277 20.02 135.417 20.24 134.47 20.24ZM134.47 18.02C135.137 18.02 135.717 17.7733 136.21 17.28C136.703 16.7733 136.95 16.0267 136.95 15.04C136.95 14.0533 136.703 13.3133 136.21 12.82C135.717 12.3133 135.143 12.06 134.49 12.06C133.81 12.06 133.223 12.3133 132.73 12.82C132.25 13.3133 132.01 14.0533 132.01 15.04C132.01 16.0267 132.25 16.7733 132.73 17.28C133.223 17.7733 133.803 18.02 134.47 18.02Z" fill="white"/>
<path d="M22.6922 6.56501L13.3033 2.23167C13.2083 2.18768 13.1048 2.16489 13 2.16489C12.8952 2.16489 12.7917 2.18768 12.6967 2.23167L3.30778 6.56501C3.18241 6.62303 3.07632 6.71578 3.00207 6.83227C2.92783 6.94876 2.88855 7.08409 2.88889 7.22223V19.5C2.88855 19.6381 2.92783 19.7735 3.00207 19.89C3.07632 20.0065 3.18241 20.0992 3.30778 20.1572L12.6967 24.4906C12.7917 24.5346 12.8952 24.5574 13 24.5574C13.1048 24.5574 13.2083 24.5346 13.3033 24.4906L22.6922 20.1572C22.8176 20.0992 22.9237 20.0065 22.9979 19.89C23.0722 19.7735 23.1115 19.6381 23.1111 19.5V7.22223C23.1115 7.08409 23.0722 6.94876 22.9979 6.83227C22.9237 6.71578 22.8176 6.62303 22.6922 6.56501ZM13 10.7611L5.33722 7.22223L13 3.68334L20.6628 7.22223L13 10.7611ZM21.6667 19.0378L13.7222 22.7067V12.0178L21.6667 8.3489V19.0378Z" fill="url(#paint0_linear_147_4)"/>
<defs>
<linearGradient id="paint0_linear_147_4" x1="13" y1="2.16489" x2="13" y2="24.5574" gradientUnits="userSpaceOnUse">
<stop offset="0.276042" stop-color="#9C00EB"/>
<stop offset="1" stop-color="#2C46D0"/>
</linearGradient>
</defs>
</svg>
