<svg width="26" height="26" viewBox="0 0 26 26" fill="none" xmlns="http://www.w3.org/2000/svg">
<path d="M22.6922 6.56501L13.3033 2.23167C13.2083 2.18768 13.1048 2.16489 13 2.16489C12.8952 2.16489 12.7917 2.18768 12.6967 2.23167L3.30778 6.56501C3.18241 6.62303 3.07632 6.71578 3.00207 6.83227C2.92783 6.94876 2.88855 7.08409 2.88889 7.22223V19.5C2.88855 19.6381 2.92783 19.7735 3.00207 19.89C3.07632 20.0065 3.18241 20.0992 3.30778 20.1572L12.6967 24.4906C12.7917 24.5346 12.8952 24.5574 13 24.5574C13.1048 24.5574 13.2083 24.5346 13.3033 24.4906L22.6922 20.1572C22.8176 20.0992 22.9237 20.0065 22.9979 19.89C23.0722 19.7735 23.1115 19.6381 23.1111 19.5V7.22223C23.1115 7.08409 23.0722 6.94876 22.9979 6.83227C22.9237 6.71578 22.8176 6.62303 22.6922 6.56501ZM13 10.7611L5.33722 7.22223L13 3.68334L20.6628 7.22223L13 10.7611ZM21.6667 19.0378L13.7222 22.7067V12.0178L21.6667 8.3489V19.0378Z" fill="url(#paint0_linear_141_54)"/>
<defs>
<linearGradient id="paint0_linear_141_54" x1="13" y1="2.16489" x2="13" y2="24.5574" gradientUnits="userSpaceOnUse">
<stop offset="0.276042" stop-color="#9C00EB"/>
<stop offset="1" stop-color="#2C46D0"/>
</linearGradient>
</defs>
</svg>
